<svg xmlns="http://www.w3.org/2000/svg" width="16" height="16" viewBox="0 0 16 16">
  <g id="file_download_pdf_icon_153420" transform="translate(-2 -2)">
    <path id="Tracé_5999" data-name="Tracé 5999" d="M6.8,2h0V6.8H8.4l-3.2,4L2,6.8H3.6V2Z" fill="#fff"/>
    <path id="Tracé_6000" data-name="Tracé 6000" d="M10.456,16.089H9.939V14.841h.524a.377.377,0,0,1,.322.181.83.83,0,0,1,.12.475.7.7,0,0,1-.118.44A.4.4,0,0,1,10.456,16.089Z" transform="translate(-1.588 -2.568)" fill="#fff"/>
    <path id="Tracé_6001" data-name="Tracé 6001" d="M13.664,17.5V14.841h.274a.571.571,0,0,1,.5.234,1.5,1.5,0,0,1,.146.78v.7a1.349,1.349,0,0,1-.161.736.61.61,0,0,1-.529.212Z" transform="translate(-2.333 -2.568)" fill="#fff"/>
    <path id="Tracé_6002" data-name="Tracé 6002" d="M6,12.081,10.865,6H8.4V2h4.8a.092.092,0,0,1,.026.005.12.12,0,0,0,.023.005.793.793,0,0,1,.207.041l.024.008a.416.416,0,0,1,.051.019.8.8,0,0,1,.234.157l4.8,4.8a.8.8,0,0,1,.157.234c.007.017.013.035.019.053l.008.023a.792.792,0,0,1,.04.206.116.116,0,0,0,.005.023A.092.092,0,0,1,18.8,7.6v8.8A1.6,1.6,0,0,1,17.2,18H7.6A1.6,1.6,0,0,1,6,16.4ZM13.2,7.6v-4l4,4Zm-4.049,8V14.193h.5a1.183,1.183,0,0,0,.9-.341,1.291,1.291,0,0,0,.325-.929,1.378,1.378,0,0,0-.33-.956,1.117,1.117,0,0,0-.879-.368H8.4v4Zm2.229-4v4h.964a1.332,1.332,0,0,0,1.066-.448,1.835,1.835,0,0,0,.388-1.239v-.648a1.821,1.821,0,0,0-.4-1.22,1.3,1.3,0,0,0-1.038-.445Zm4.879,2.368H15.091V15.6H14.34v-4H16.4v.673H15.091V13.3h1.168Z" transform="translate(-0.8)" fill="#fff" fill-rule="evenodd"/>
  </g>
</svg>
